<svg width="123" height="33" viewBox="0 0 123 33" fill="none" xmlns="http://www.w3.org/2000/svg">
<path d="M19.6436 5.04877V23.9757H13.6592V21.3979C13.0512 22.2343 12.2293 22.9073 11.1917 23.4168C10.1541 23.9244 9.0047 24.1791 7.74545 24.1791C6.25279 24.1791 4.93274 23.8559 3.79117 23.2134C2.64765 22.5689 1.76108 21.6355 1.13145 20.415C0.501829 19.1945 0.186035 17.7573 0.186035 16.1072V5.04877H6.1351V15.3259C6.1351 16.592 6.47247 17.5767 7.14917 18.2763C7.82587 18.9778 8.73598 19.3276 9.8795 19.3276C11.0466 19.3276 11.9665 18.9759 12.6432 18.2763C13.3199 17.5767 13.6592 16.592 13.6592 15.3259V5.04877H19.6436Z" fill="white"/>
<path d="M36.7748 19.0576V23.9757H33.7307C31.5613 23.9757 29.8686 23.4605 28.6564 22.432C27.4423 21.4035 26.8362 19.7249 26.8362 17.3942V9.86412H24.457V5.04874H26.8362V0.434875H32.8206V5.04874H36.7395V9.86412H32.8206V17.4626C32.8206 18.0273 32.9598 18.436 33.2403 18.6831C33.5208 18.9322 33.9857 19.0557 34.6408 19.0557H36.7748V19.0576Z" fill="white"/>
<path d="M45.3013 23.0594C43.7733 22.2685 42.5709 21.1374 41.6961 19.6679C40.8213 18.1984 40.3839 16.4798 40.3839 14.5122C40.3839 12.5674 40.8272 10.8546 41.7138 9.37367C42.6003 7.89275 43.8125 6.75782 45.3542 5.96508C46.894 5.17424 48.62 4.77692 50.5344 4.77692C52.4468 4.77692 54.1748 5.17234 55.7146 5.96508C57.2543 6.75592 58.4665 7.89275 59.355 9.37367C60.2416 10.8546 60.6849 12.5674 60.6849 14.5122C60.6849 16.457 60.2357 18.1699 59.3374 19.6508C58.439 21.1317 57.2131 22.2685 55.6636 23.0594C54.1121 23.8502 52.3801 24.2456 50.4677 24.2456C48.5494 24.2475 46.8292 23.8521 45.3013 23.0594ZM53.3844 18.0064C54.1886 17.1927 54.5926 16.0274 54.5926 14.5122C54.5926 12.9971 54.2023 11.8336 53.4197 11.0181C52.6371 10.2044 51.676 9.7976 50.5324 9.7976C49.3654 9.7976 48.3964 10.1987 47.6275 11.001C46.8567 11.8051 46.4722 12.9743 46.4722 14.5122C46.4722 16.0274 46.8508 17.1908 47.6099 18.0064C48.367 18.82 49.3183 19.2269 50.4618 19.2269C51.6053 19.2269 52.5802 18.82 53.3844 18.0064Z" fill="white"/>
<path d="M72.6909 5.59246C73.7167 5.05066 74.9191 4.77881 76.296 4.77881C77.9064 4.77881 79.3637 5.17423 80.6701 5.96697C81.9764 6.75781 83.0081 7.88894 83.7672 9.35845C84.5243 10.828 84.9048 12.5351 84.9048 14.4799C84.9048 16.4247 84.5243 18.1375 83.7672 19.6185C83.0081 21.0994 81.9764 22.2419 80.6701 23.0442C79.3637 23.8483 77.9064 24.2475 76.296 24.2475C74.9426 24.2475 73.7462 23.9757 72.7086 23.4339C71.669 22.8921 70.8589 22.1906 70.2764 21.3313V33H64.292V5.04876H70.2764V7.72735C70.8589 6.84716 71.6631 6.13426 72.6909 5.59246ZM77.571 11.0694C76.7433 10.2443 75.7213 9.83182 74.5092 9.83182C73.3186 9.83182 72.3104 10.252 71.4826 11.0865C70.6549 11.923 70.241 13.0655 70.241 14.5122C70.241 15.9589 70.6549 17.1015 71.4826 17.9379C72.3104 18.7744 73.3205 19.1926 74.5092 19.1926C75.6978 19.1926 76.7138 18.7687 77.5533 17.9208C78.3928 17.073 78.8126 15.9266 78.8126 14.478C78.8145 13.0313 78.3987 11.8945 77.571 11.0694Z" fill="white"/>
<path d="M90.6538 5.04688V23.9776H96.6343V5.04688H90.6538Z" fill="white"/>
<path d="M103.525 9.35656C104.282 7.88704 105.316 6.75592 106.622 5.96508C107.928 5.17424 109.386 4.77692 110.996 4.77692C112.373 4.77692 113.579 5.04877 114.619 5.59057C115.656 6.13237 116.457 6.84526 117.016 7.72735V5.04877H123V23.9757H117.016V21.2971C116.433 22.1792 115.621 22.8921 114.583 23.4339C113.546 23.9776 112.338 24.2475 110.963 24.2475C109.376 24.2475 107.93 23.8464 106.624 23.0442C105.318 22.2419 104.284 21.0994 103.527 19.6185C102.768 18.1375 102.389 16.4247 102.389 14.4799C102.387 12.5332 102.766 10.8261 103.525 9.35656ZM115.774 11.0865C114.946 10.2501 113.936 9.83183 112.748 9.83183C111.557 9.83183 110.549 10.2444 109.721 11.0694C108.893 11.8945 108.479 13.0313 108.479 14.478C108.479 15.9247 108.893 17.073 109.721 17.9208C110.549 18.7687 111.559 19.1926 112.748 19.1926C113.938 19.1926 114.946 18.7744 115.774 17.9379C116.602 17.1015 117.016 15.9589 117.016 14.5122C117.016 13.0655 116.602 11.923 115.774 11.0865Z" fill="white"/>
<path d="M97.4914 8.34332L93.645 6.98976L89.7986 8.34332L88.5119 4.91001L93.645 3.104L98.7781 4.91001L97.4914 8.34332Z" fill="#FCA311"/>
</svg>
