<svg width="109" height="37" viewBox="0 0 109 37" fill="none" xmlns="http://www.w3.org/2000/svg">
<g clip-path="url(#clip0_3771_1532)">
<path d="M19.4485 11.0434V20.1282C19.4485 23.6441 17.4038 26.6645 14.4528 28.0568C13.686 28.4107 12.8495 28.6703 11.9898 28.7883C11.618 28.8355 11.223 28.8591 10.8512 28.8591C10.4562 28.8591 10.0844 28.8355 9.6894 28.7883C8.82967 28.6703 7.99318 28.4343 7.22639 28.0568C4.27542 26.6645 2.23065 23.6441 2.23065 20.1282V11.0434H7.43551V20.7653C7.43551 20.8125 7.43551 20.8361 7.43551 20.8597V20.9305C7.43551 21.0013 7.43551 21.0721 7.45875 21.1429C7.45875 21.2844 7.48199 21.4024 7.50522 21.5204C7.50522 21.5676 7.52846 21.6148 7.52846 21.662C7.85376 23.1958 9.17821 24.3756 10.8047 24.3992C10.8047 24.3992 10.8047 24.3992 10.828 24.3992H10.9441C10.9441 24.3992 10.9441 24.3992 10.9674 24.3992C12.5707 24.3756 13.8951 23.2194 14.2204 21.662C14.2204 21.6148 14.2437 21.5676 14.2437 21.5204C14.2669 21.4024 14.2901 21.2844 14.2901 21.1429C14.3134 21.0721 14.3134 21.0013 14.3134 20.9305V20.8833C14.3134 20.8361 14.3134 20.7889 14.3134 20.7417V11.0434H19.4485Z" fill="#161A1D"/>
<path d="M19.4485 9.08482L10.8512 5.3801L2.23065 9.08482L0 4.67219L10.8512 0L21.6792 4.67219L19.4485 9.08482Z" fill="#FCA311"/>
<path d="M35.0631 24.0453V28.6231H32.3678C30.4392 28.6231 28.9521 28.1511 27.86 27.1837C26.7911 26.2162 26.2567 24.6588 26.2567 22.5115V15.5268H24.1422V11.0434H26.2567V6.74872H31.5545V11.0434H35.0399V15.5268H31.5545V22.5823C31.5545 23.1014 31.6707 23.479 31.9263 23.7149C32.1819 23.9509 32.5769 24.0689 33.1578 24.0689H35.0631V24.0453Z" fill="#161A1D"/>
<path d="M42.9401 27.7736C41.5924 27.0421 40.5235 25.9802 39.7335 24.6116C38.9667 23.243 38.5717 21.6384 38.5717 19.8214C38.5717 18.0045 38.9667 16.4235 39.7568 15.0549C40.5468 13.6862 41.6156 12.6244 42.9866 11.8929C44.3575 11.1614 45.891 10.7838 47.5873 10.7838C49.2835 10.7838 50.8171 11.1614 52.188 11.8929C53.5589 12.6244 54.6278 13.6862 55.4178 15.0549C56.2078 16.4235 56.6028 18.0281 56.6028 19.8214C56.6028 21.6384 56.2078 23.2194 55.4178 24.588C54.6278 25.9566 53.5357 27.0185 52.1648 27.75C50.7938 28.4815 49.2603 28.8591 47.564 28.8591C45.8213 28.8827 44.311 28.5051 42.9401 27.7736ZM50.12 23.0778C50.8403 22.3227 51.1888 21.2373 51.1888 19.8214C51.1888 18.4056 50.8403 17.3438 50.1432 16.5651C49.4461 15.81 48.5864 15.4324 47.5873 15.4324C46.5417 15.4324 45.7052 15.81 45.0081 16.5415C44.3342 17.2966 43.9857 18.382 43.9857 19.7978C43.9857 21.2137 44.311 22.2755 44.9848 23.0542C45.6587 23.8093 46.4952 24.1869 47.5176 24.1869C48.5399 24.2105 49.3997 23.8329 50.12 23.0778Z" fill="#161A1D"/>
<path d="M67.547 11.5389C68.4532 11.0434 69.5221 10.7838 70.7536 10.7838C72.171 10.7838 73.4722 11.1614 74.634 11.8929C75.7958 12.6244 76.702 13.6862 77.3758 15.0549C78.0497 16.4235 78.375 18.0045 78.375 19.8214C78.375 21.6384 78.0497 23.2194 77.3758 24.588C76.702 25.9566 75.7958 27.0185 74.634 27.7736C73.4722 28.5287 72.1942 28.8827 70.7536 28.8827C69.5453 28.8827 68.4997 28.6231 67.5703 28.1276C66.6408 27.632 65.9205 26.9713 65.4093 26.169V37H60.1115V11.0434H65.4093V13.5211C65.9205 12.7188 66.6408 12.058 67.547 11.5389ZM71.8921 16.6359C71.1486 15.8808 70.2424 15.4796 69.1735 15.4796C68.1279 15.4796 67.2217 15.8808 66.4782 16.6359C65.7346 17.4146 65.3861 18.4764 65.3861 19.8214C65.3861 21.1665 65.7579 22.2283 66.4782 23.007C67.2217 23.7857 68.1047 24.1633 69.1735 24.1633C70.2192 24.1633 71.1254 23.7621 71.8689 22.9834C72.6125 22.2047 72.9842 21.1193 72.9842 19.7742C72.9842 18.4528 72.6125 17.391 71.8921 16.6359Z" fill="#161A1D"/>
<path d="M91.7356 15.0312C92.4095 13.6626 93.3157 12.6244 94.4775 11.8692C95.6393 11.1377 96.9173 10.7602 98.3579 10.7602C99.5894 10.7602 100.658 11.0198 101.564 11.5153C102.494 12.0108 103.191 12.6715 103.679 13.4974V11.0434H108.977V28.6231H103.679V26.1454C103.168 26.9713 102.447 27.632 101.518 28.1275C100.589 28.6231 99.5197 28.8826 98.3114 28.8826C96.894 28.8826 95.616 28.5051 94.4543 27.7736C93.2925 27.0185 92.3863 25.9566 91.7124 24.588C91.0386 23.2194 90.7133 21.6148 90.7133 19.8214C90.7365 18.0045 91.0618 16.3999 91.7356 15.0312ZM102.61 16.6594C101.867 15.8807 100.984 15.5032 99.9147 15.5032C98.8459 15.5032 97.9629 15.8807 97.2193 16.6594C96.4758 17.4381 96.1272 18.4764 96.1272 19.8214C96.1272 21.1664 96.499 22.2283 97.2193 23.0306C97.9629 23.8093 98.8459 24.2104 99.9147 24.2104C100.984 24.2104 101.867 23.8329 102.61 23.0542C103.354 22.2755 103.702 21.2136 103.702 19.8686C103.702 18.5 103.33 17.4381 102.61 16.6594Z" fill="#161A1D"/>
<path d="M81.9069 11.0434V28.6231H87.2047V11.0434H81.9069Z" fill="#161A1D"/>
<path d="M84.5558 9.2264C83.789 9.2264 83.1151 8.96684 82.5807 8.4477C82.0463 7.92857 81.7675 7.29145 81.7675 6.55995C81.7675 5.82844 82.0463 5.19133 82.604 4.67219C83.1616 4.15306 83.8122 3.89349 84.579 3.89349C85.3458 3.89349 86.0196 4.15306 86.5541 4.67219C87.1117 5.19133 87.3673 5.82844 87.3673 6.55995C87.3673 7.29145 87.0885 7.92857 86.5541 8.4477C85.9964 8.96684 85.3226 9.2264 84.5558 9.2264Z" fill="#161A1D"/>
</g>
<defs>
<clipPath id="clip0_3771_1532">
<rect width="109" height="37" fill="white"/>
</clipPath>
</defs>
</svg>
