<svg width="186" height="43" viewBox="0 0 186 43" fill="none" xmlns="http://www.w3.org/2000/svg">
<path d="M40.8511 7.33429H7.24365V36.6676H40.8511V7.33429Z" fill="url(#paint0_linear_1081_1805)"/>
<path d="M42.9498 21.8679L24.0493 14.6705L5.15076 21.8679L0 9.15929L24.0493 0L48.1005 9.15929L42.9498 21.8679Z" fill="#FCA311"/>
<path d="M82.6436 15.0488V33.9757H76.6592V31.3979C76.0512 32.2343 75.2293 32.9073 74.1917 33.4168C73.1541 33.9244 72.0047 34.1791 70.7454 34.1791C69.2528 34.1791 67.9327 33.8559 66.7912 33.2134C65.6477 32.5689 64.7611 31.6355 64.1315 30.415C63.5018 29.1945 63.186 27.7573 63.186 26.1072V15.0488H69.1351V25.3259C69.1351 26.592 69.4725 27.5767 70.1492 28.2763C70.8259 28.9778 71.736 29.3276 72.8795 29.3276C74.0466 29.3276 74.9665 28.9759 75.6432 28.2763C76.3199 27.5767 76.6592 26.592 76.6592 25.3259V15.0488H82.6436Z" fill="white"/>
<path d="M99.7748 29.0576V33.9757H96.7307C94.5613 33.9757 92.8686 33.4605 91.6564 32.432C90.4423 31.4035 89.8362 29.7249 89.8362 27.3942V19.8641H87.457V15.0487H89.8362V10.4349H95.8206V15.0487H99.7395V19.8641H95.8206V27.4626C95.8206 28.0273 95.9598 28.436 96.2403 28.6831C96.5208 28.9322 96.9857 29.0557 97.6408 29.0557H99.7748V29.0576Z" fill="white"/>
<path d="M108.301 33.0594C106.773 32.2685 105.571 31.1374 104.696 29.6679C103.821 28.1984 103.384 26.4798 103.384 24.5122C103.384 22.5674 103.827 20.8546 104.714 19.3737C105.6 17.8927 106.813 16.7578 108.354 15.9651C109.894 15.1742 111.62 14.7769 113.534 14.7769C115.447 14.7769 117.175 15.1723 118.715 15.9651C120.254 16.7559 121.466 17.8927 122.355 19.3737C123.242 20.8546 123.685 22.5674 123.685 24.5122C123.685 26.457 123.236 28.1699 122.337 29.6508C121.439 31.1317 120.213 32.2685 118.664 33.0594C117.112 33.8502 115.38 34.2456 113.468 34.2456C111.549 34.2475 109.829 33.8521 108.301 33.0594ZM116.384 28.0064C117.189 27.1927 117.593 26.0274 117.593 24.5122C117.593 22.9971 117.202 21.8336 116.42 21.0181C115.637 20.2044 114.676 19.7976 113.532 19.7976C112.365 19.7976 111.396 20.1987 110.628 21.001C109.857 21.8051 109.472 22.9743 109.472 24.5122C109.472 26.0274 109.851 27.1908 110.61 28.0064C111.367 28.82 112.318 29.2269 113.462 29.2269C114.605 29.2269 115.58 28.82 116.384 28.0064Z" fill="white"/>
<path d="M135.691 15.5925C136.717 15.0507 137.919 14.7788 139.296 14.7788C140.906 14.7788 142.364 15.1742 143.67 15.967C144.976 16.7578 146.008 17.8889 146.767 19.3585C147.524 20.828 147.905 22.5351 147.905 24.4799C147.905 26.4247 147.524 28.1375 146.767 29.6185C146.008 31.0994 144.976 32.2419 143.67 33.0442C142.364 33.8483 140.906 34.2475 139.296 34.2475C137.943 34.2475 136.746 33.9757 135.709 33.4339C134.669 32.8921 133.859 32.1906 133.276 31.3313V43H127.292V15.0488H133.276V17.7273C133.859 16.8472 134.663 16.1343 135.691 15.5925ZM140.571 21.0694C139.743 20.2443 138.721 19.8318 137.509 19.8318C136.319 19.8318 135.31 20.252 134.483 21.0865C133.655 21.923 133.241 23.0655 133.241 24.5122C133.241 25.9589 133.655 27.1015 134.483 27.9379C135.31 28.7744 136.321 29.1926 137.509 29.1926C138.698 29.1926 139.714 28.7687 140.553 27.9208C141.393 27.073 141.813 25.9266 141.813 24.478C141.815 23.0313 141.399 21.8945 140.571 21.0694Z" fill="white"/>
<path d="M153.654 15.0469V33.9776H159.634V15.0469H153.654Z" fill="white"/>
<path d="M166.525 19.3566C167.282 17.887 168.316 16.7559 169.622 15.9651C170.928 15.1742 172.386 14.7769 173.996 14.7769C175.373 14.7769 176.579 15.0488 177.619 15.5906C178.656 16.1324 179.457 16.8453 180.016 17.7274V15.0488H186V33.9757H180.016V31.2971C179.433 32.1792 178.621 32.8921 177.583 33.4339C176.546 33.9776 175.338 34.2475 173.963 34.2475C172.376 34.2475 170.93 33.8464 169.624 33.0442C168.318 32.2419 167.284 31.0994 166.527 29.6185C165.768 28.1375 165.389 26.4247 165.389 24.4799C165.387 22.5332 165.766 20.8261 166.525 19.3566ZM178.774 21.0865C177.946 20.2501 176.936 19.8318 175.748 19.8318C174.557 19.8318 173.549 20.2444 172.721 21.0694C171.893 21.8945 171.479 23.0313 171.479 24.478C171.479 25.9247 171.893 27.073 172.721 27.9208C173.549 28.7687 174.559 29.1926 175.748 29.1926C176.938 29.1926 177.946 28.7744 178.774 27.9379C179.602 27.1015 180.016 25.9589 180.016 24.5122C180.016 23.0655 179.602 21.923 178.774 21.0865Z" fill="white"/>
<path d="M160.491 18.3433L156.645 16.9898L152.799 18.3433L151.512 14.91L156.645 13.104L161.778 14.91L160.491 18.3433Z" fill="#FCA311"/>
<defs>
<linearGradient id="paint0_linear_1081_1805" x1="24.0476" y1="38.7102" x2="24.0476" y2="12.1284" gradientUnits="userSpaceOnUse">
<stop stop-color="#FFAE39"/>
<stop offset="1" stop-color="#E58800"/>
</linearGradient>
</defs>
</svg>
